User Type,Username,Date,Text
,galdau88,2011-05-21T12:23Z,http://www.imdb.com/title/tt0487176/
,vuca89,2011-05-23T05:14Z,"thank you
full quality
General
      Format : MPEG-4
      Format profile : Base Media / Version 2
      Codec ID : mp42
      File size : 720 MiB
      Duration : 1h 14mn
      Overall bit rate : 1 350 Kbps
      Encoded date : UTC 2011-05-11 10:52:03
      Tagged date : UTC 2011-05-11 11:09:19
      Writing application : HandBrake 0.9.5 2011010300
   Video #1
      ID : 1
      Format : AVC
      Format/Info : Advanced Video Codec
      Format profile : Main@L3.0
      Format settings, CABAC : Yes
      Format settings, ReFrames : 4 frames
      Codec ID : avc1
      Codec ID/Info : Advanced Video Coding
      Duration : 1h 14mn
      Bit rate mode : Variable
      Bit rate : 1 148 Kbps
      Width : 720 pixels
      Height : 400 pixels
      Display aspect ratio : 16:9
      Frame rate mode : Variable
      Frame rate : 23.976 fps
      Minimum frame rate : 23.419 fps
      Maximum frame rate : 24.390 fps
      Resolution : 24 bits
      Colorimetry : 4:2:0
      Scan type : Progressive
      Bits/(Pixel*Frame) : 0.166
      Stream size : 612 MiB (85%)
      Writing library : x264 core 112

      Encoded date : UTC 2011-05-11 10:52:03
      Tagged date : UTC 2011-05-11 11:09:19
      colour_primaries : BT.709-5, BT.1361, IEC 61966-2-4, SMPTE RP177
      transfer_characteristics : BT.709-5, BT.1361
      matrix_coefficients : BT.709-5, BT.1361, IEC 61966-2-4 709, SMPTE RP177
   Audio #2
      ID : 2
      Format : AAC
      Format/Info : Advanced Audio Codec
      Format version : Version 4
      Format profile : LC
      Format settings, SBR : No
      Codec ID : 40
      Duration : 1h 14mn
      Bit rate mode : Variable
      Bit rate : 197 Kbps
      Maximum bit rate : 329 Kbps
      Channel(s) : 2 channels
      Channel positions : L R
      Sampling rate : 48.0 KHz
      Resolution : 16 bits
      Stream size : 105 MiB (15%)
      Encoded date : UTC 2011-05-11 10:52:03
      Tagged date : UTC 2011-05-11 11:09:18"
